<svg width="38" height="33" viewBox="0 0 38 33" fill="none" xmlns="http://www.w3.org/2000/svg">
<path d="M1 10.75H5L7.68 24.14C7.77144 24.6004 8.02191 25.014 8.38755 25.3083C8.75318 25.6026 9.2107 25.759 9.68 25.75H19.4C19.8693 25.759 20.3268 25.6026 20.6925 25.3083C21.0581 25.014 21.3086 24.6004 21.4 24.14L23 15.75H6M10 30.75C10 31.3023 9.55228 31.75 9 31.75C8.44772 31.75 8 31.3023 8 30.75C8 30.1977 8.44772 29.75 9 29.75C9.55228 29.75 10 30.1977 10 30.75ZM21 30.75C21 31.3023 20.5523 31.75 20 31.75C19.4477 31.75 19 31.3023 19 30.75C19 30.1977 19.4477 29.75 20 29.75C20.5523 29.75 21 30.1977 21 30.75Z" stroke="white" stroke-width="2" stroke-linecap="round" stroke-linejoin="round"/>
<circle cx="27.5" cy="10.75" r="10.5" fill="#FFCA42"/>
<path d="M25.544 14.4276C27.4474 14.4311 28.6158 13.0249 28.6193 10.6243C28.6229 8.23793 27.4474 6.87784 25.544 6.87784C23.6406 6.87784 22.4759 8.23438 22.4723 10.6243C22.4652 13.0178 23.6406 14.4276 25.544 14.4276ZM25.544 12.9893C24.7876 12.9893 24.2727 12.2294 24.2798 10.6243C24.2834 9.05114 24.7912 8.3054 25.544 8.3054C26.3004 8.3054 26.8082 9.05114 26.8118 10.6243C26.8153 12.2294 26.304 12.9893 25.544 12.9893ZM32.889 6.97727H31.259L29.4657 8.09233V9.61222L31.0921 8.6179H31.1347V14.25H32.889V6.97727Z" fill="#1B3764"/>
</svg>
