<svg width="119" height="36" viewBox="0 0 119 36" fill="none" xmlns="http://www.w3.org/2000/svg">
<path d="M35.0199 28.5H39.3253V21.8977H42.9446C47.6278 21.8977 50.3522 19.1037 50.3522 15.0369C50.3522 10.9901 47.6775 8.13636 43.0539 8.13636H35.0199V28.5ZM39.3253 18.4474V11.6562H42.2287C44.7145 11.6562 45.9176 13.0085 45.9176 15.0369C45.9176 17.0554 44.7145 18.4474 42.2485 18.4474H39.3253ZM57.0142 28.7884C59.2713 28.7884 60.7329 27.804 61.4787 26.3821H61.598V28.5H65.615V18.1989C65.615 14.5597 62.5326 13.0284 59.1321 13.0284C55.473 13.0284 53.0667 14.7784 52.4801 17.5625L56.3977 17.8807C56.686 16.8665 57.5909 16.1207 59.1122 16.1207C60.5539 16.1207 61.3792 16.8466 61.3792 18.0994V18.1591C61.3792 19.1435 60.3352 19.2727 57.6804 19.5312C54.6576 19.8097 51.9432 20.8239 51.9432 24.2344C51.9432 27.2571 54.1008 28.7884 57.0142 28.7884ZM58.2272 25.8651C56.9247 25.8651 55.99 25.2585 55.99 24.0952C55.99 22.902 56.9744 22.3153 58.4659 22.1065C59.3906 21.9773 60.902 21.7585 61.4091 21.4205V23.0412C61.4091 24.642 60.0866 25.8651 58.2272 25.8651ZM75.7819 34.5455C80.147 34.5455 83.2493 32.5568 83.2493 28.6491V13.2273H79.0433V15.7926H78.8842C78.3174 14.5497 77.0745 13.0284 74.5191 13.0284C71.1683 13.0284 68.3345 15.6335 68.3345 20.8338C68.3345 25.9148 71.0887 28.2812 74.5291 28.2812C76.9652 28.2812 78.3274 27.0582 78.8842 25.7955H79.0632V28.5895C79.0632 30.6875 77.7209 31.5028 75.8814 31.5028C74.012 31.5028 73.0674 30.6875 72.7194 29.7628L68.8018 30.2898C69.3089 32.696 71.6655 34.5455 75.7819 34.5455ZM75.8714 25.0994C73.7933 25.0994 72.6598 23.4489 72.6598 20.8139C72.6598 18.2188 73.7734 16.3991 75.8714 16.3991C77.9297 16.3991 79.0831 18.1392 79.0831 20.8139C79.0831 23.5085 77.9098 25.0994 75.8714 25.0994ZM93.5802 28.7983C97.3586 28.7983 99.9041 26.9588 100.501 24.125L96.5831 23.8665C96.1555 25.0298 95.0618 25.6364 93.6498 25.6364C91.5319 25.6364 90.1896 24.2344 90.1896 21.9574V21.9474H100.59V20.7841C100.59 15.5938 97.4481 13.0284 93.4112 13.0284C88.9169 13.0284 86.0035 16.2202 86.0035 20.9332C86.0035 25.7756 88.8771 28.7983 93.5802 28.7983ZM90.1896 19.3224C90.2791 17.5824 91.6015 16.1903 93.4808 16.1903C95.3203 16.1903 96.593 17.5028 96.603 19.3224H90.1896ZM116.062 17.5824C115.684 14.7685 113.417 13.0284 109.559 13.0284C105.651 13.0284 103.076 14.8381 103.086 17.7812C103.076 20.0682 104.518 21.5497 107.501 22.1463L110.146 22.6733C111.478 22.9418 112.084 23.429 112.104 24.1946C112.084 25.0994 111.1 25.7457 109.619 25.7457C108.107 25.7457 107.103 25.0994 106.844 23.8565L102.678 24.0753C103.076 26.9986 105.562 28.7983 109.609 28.7983C113.566 28.7983 116.4 26.7798 116.41 23.767C116.4 21.5597 114.958 20.2372 111.995 19.6307L109.231 19.0739C107.809 18.7656 107.282 18.2784 107.292 17.5426C107.282 16.6278 108.316 16.0312 109.629 16.0312C111.1 16.0312 111.975 16.8366 112.184 17.821L116.062 17.5824Z" fill="white"/>
<path d="M3.56348 25.9H24.5V3.5H3.5057C1.57228 3.50642 0.00635613 5.08725 0 7.03908V27.6646H0.00057783C0.00057783 27.6733 0 27.6821 0 27.6908C0 29.7558 1.60521 31.5 3.5057 31.5H24.5V29.6333H3.5057C2.63895 29.6333 1.84906 28.7076 1.84906 27.6908C1.84906 26.7202 2.63433 25.9 3.56348 25.9ZM5.54717 5.38592H11.0943V15.4671L8.29764 12.9885L5.54717 15.4525V5.38592ZM1.84906 7.05367C1.84617 6.12617 2.58695 5.37192 3.5057 5.36667H3.69811H5.54717H3.69811V17.9667H5.52637L8.30458 15.4782L11.1117 17.9667H12.9434V5.36667H22.6509V24.0333H5.55179H3.70274H3.56348C2.96196 24.0333 2.37141 24.192 1.84963 24.493V7.05367H1.84906Z" fill="#FFCA42"/>
</svg>
